{"title":"The Doobie Brothers - The Captain And Me - FLAC 24-96 - Vinyl Ri","uid":9523395,"size":1444651152,"categoryP":"audio","categoryS":"flac","magnet":"?xt=urn:btih:9680ac74194b10fa8c9dc14c70fc59a1054bb45e&amp;dn=The+Doobie+Brothers+-+The+Captain+And+Me+-+FLAC+24-96+-+Vinyl+Ri&amp;tr=udp%3A%2F%2Ftracker.openbittorrent.com%3A80&amp;tr=udp%3A%2F%2Fopen.demonii.com%3A1337&amp;tr=udp%3A%2F%2Ftracker.coppersurfer.tk%3A6969&amp;tr=udp%3A%2F%2Fexodus.desync.com%3A6969","seeders":0,"leechers":1,"uploader":"vinylripper","files":18,"time":1390688390,"description":"foobar2000 1.2.9 / Dynamic Range Meter 1.1.1\nlog date: 2014-01-25 15:58:56\n\n--------------------------------------------------------------------------------\nAnalyzed: The Doobie Brothers / The Captain And Me\n--------------------------------------------------------------------------------\n\nDR         Peak         RMS     Duration Track\n--------------------------------------------------------------------------------\nDR12      -1.32 dB   -15.95 dB      3:16 01-Natural Thing\nDR12      -0.47 dB   -15.30 dB      3:28 02-Long train Running\nDR12      -0.20 dB   -15.38 dB      3:14 03-China Grove\nDR12      -0.09 dB   -14.88 dB      4:11 04-Dark Eyed Cajun Woman\nDR13      -0.11 dB   -17.21 dB      5:18 05-Clear As The Driven Snow\nDR11      -2.41 dB   -16.06 dB      4:59 06-Whithout You\nDR13      -3.55 dB   -18.88 dB      5:28 07-South City Midnight Lady\nDR11      -2.99 dB   -15.94 dB      3:18 08-Evil Woman\nDR11     -11.67 dB   -26.80 dB      0:47 09-Busted Down Around O'Connelly Corners\nDR13      -4.96 dB   -19.50 dB      3:02 10-Ukiah\nDR13      -0.17 dB   -17.66 dB      4:43 11-The Captain And Me\n--------------------------------------------------------------------------------\n\nNumber of tracks:  11\nOfficial DR value: DR12\n\nSamplerate:        96000 Hz\nChannels:          2\nBits per sample:   24\nBitrate:           4610 kbps\nCodec:             FLAC\n================================================================================","torrent":{"xt":"urn:btih:9680ac74194b10fa8c9dc14c70fc59a1054bb45e","amp;dn":"The+Doobie+Brothers+-+The+Captain+And+Me+-+FLAC+24-96+-+Vinyl+Ri","amp;tr":["udp%3A%2F%2Ftracker.openbittorrent.com%3A80","udp%3A%2F%2Fopen.demonii.com%3A1337","udp%3A%2F%2Ftracker.coppersurfer.tk%3A6969","udp%3A%2F%2Fexodus.desync.com%3A6969"],"infoHash":"9680ac74194b10fa8c9dc14c70fc59a1054bb45e","infoHashBuffer":{"type":"Buffer","data":[150,128,172,116,25,75,16,250,140,157,193,76,112,252,89,161,5,75,180,94]},"announce":[],"urlList":[]}}